<svg width="268" height="302" viewBox="0 0 268 302" fill="none" xmlns="http://www.w3.org/2000/svg">
<path d="M158.898 1.9995C129.988 9.8095 110.578 35.5995 110.578 66.3295C110.578 78.3095 113.188 87.9495 119.178 97.7195C121.648 101.759 123.608 106.32 123.608 107.88C123.608 114.91 114.618 121.939 87.7876 136.009C65.2576 147.729 54.7076 154.889 42.4676 166.479C14.3376 193.309 -0.382447 232.25 0.00755329 278.62C0.267553 304.67 1.82756 305.06 2.74756 279.27C4.04756 243.85 8.34756 224.829 20.1976 201.779C34.2576 174.429 52.6276 157.5 87.7876 139.66C113.058 126.76 122.428 119.989 125.818 112.049C127.638 107.749 127.508 107.229 122.558 97.7195C119.698 92.2495 116.438 84.6995 115.268 80.7895C107.718 55.1295 122.688 21.7895 147.438 9.8095C174.268 -3.3405 212.948 2.9095 235.088 24.1395C243.548 32.3395 248.238 41.8495 250.068 54.2195C250.718 59.1695 252.278 66.0695 253.448 69.7195C255.398 75.9695 255.398 76.7495 253.448 81.8295L251.238 87.1695L257.878 101.109C261.398 108.789 264.128 116.209 263.998 117.649C263.738 119.079 262.048 120.639 259.698 121.419C253.188 123.509 252.148 124.939 253.058 130.929C253.578 134.839 253.188 136.92 251.888 137.96C250.458 139.13 250.068 138.739 249.538 135.749L249.018 132.1L248.758 135.619C248.628 140.179 246.028 140.439 246.028 136.009C246.028 134.189 245.508 132.749 244.988 132.749C244.328 132.749 243.938 134.06 243.938 135.49C244.068 137.05 243.288 138.609 242.508 138.869C241.338 139.269 240.688 137.96 240.688 135.1C240.428 131.06 240.428 131.059 239.908 134.449C239.518 137.049 238.728 137.959 237.168 137.699C235.738 137.439 235.088 136.27 235.348 134.32C235.608 132.75 235.088 131.449 234.438 131.449C233.658 131.449 232.998 132.619 232.998 134.189C232.998 136.009 232.348 136.659 230.788 136.399C229.228 136.139 228.578 134.969 228.838 133.009C229.098 131.449 228.578 130.149 227.918 130.149C227.138 130.149 226.488 131.319 226.488 132.749C226.488 135.489 225.578 136.01 222.848 134.32C221.928 133.66 221.538 132.229 222.058 131.059C222.448 129.759 222.188 128.85 221.408 128.85C220.628 128.85 219.978 129.759 219.978 130.799C219.978 131.969 218.808 132.749 217.248 132.749C215.158 132.749 214.638 132.099 215.158 130.149C215.548 128.329 215.158 127.539 213.858 127.539C212.298 127.539 212.038 126.629 212.688 123.249C213.338 119.859 212.818 118.039 210.858 115.429C207.998 111.789 197.838 108.009 191.068 108.009C187.938 108.009 187.418 108.529 187.418 111.919C187.418 114.649 188.458 116.469 190.808 118.039C194.188 120.249 194.318 120.119 197.058 116.729C198.618 114.779 200.578 113.219 201.358 113.219C204.218 113.219 206.048 117.39 205.908 123.38C205.648 127.67 206.438 130.799 208.388 134.059C210.858 138.089 211.248 138.35 212.818 136.27C214.638 133.66 219.198 134.709 218.158 137.439C217.768 138.349 218.028 139.529 218.678 139.919C219.458 140.439 219.978 139.79 219.978 138.74C219.978 137.44 221.148 136.66 222.718 136.66C224.798 136.66 225.318 137.31 224.798 139.27C224.018 142.26 225.838 142.779 227.008 139.919C227.398 138.869 228.708 137.96 229.878 137.96C231.438 137.96 231.828 138.739 231.178 141.219C230.658 143.039 230.918 144.469 231.568 144.469C232.218 144.469 232.998 143.3 233.388 141.74C234.308 138.09 237.688 139.269 237.168 143.169C236.908 144.999 237.168 145.779 238.078 145.259C238.858 144.739 239.518 143.429 239.518 142.389C239.518 141.349 240.428 140.57 241.468 140.57C243.158 140.57 243.288 141.089 242.118 143.169C241.078 145.129 241.078 145.779 242.248 145.779C243.028 145.779 243.938 144.599 244.328 143.169C244.728 141.739 245.508 140.959 246.158 141.219C246.678 141.609 246.938 142.91 246.548 144.21C245.898 146.3 245.898 146.299 247.718 144.079C248.758 142.909 249.928 141.869 250.458 141.869C252.278 141.869 251.108 145.519 248.498 147.859C246.158 149.939 245.898 151.249 246.548 156.979C247.198 162.579 246.808 164.27 244.468 167.27C241.988 170.52 241.078 170.779 235.348 170.259C227.788 169.479 191.718 151.769 185.468 145.649C181.818 142.129 181.688 141.219 180.778 127.279C180.258 119.209 179.478 111.259 178.958 109.699C178.168 107.229 178.428 106.97 181.168 107.49C184.038 108.14 184.038 108.139 181.688 106.179C180.258 105.009 178.958 102.019 178.698 99.2795C178.428 96.6795 177.648 93.8095 176.998 93.0295C176.348 92.2495 176.088 90.2995 176.608 88.7295C178.168 82.4795 171.268 79.7495 166.578 84.8295C161.888 89.9095 163.848 100.189 169.578 100.189C175.178 100.189 177.778 105.919 173.748 109.309C170.748 111.789 166.578 108.269 162.418 99.9295C153.818 82.8695 162.028 66.1995 175.178 74.0195C180.518 77.1395 181.038 75.4495 176.088 71.5395C169.188 66.1995 158.898 70.8895 156.158 80.5295C154.468 86.9095 155.768 93.6795 160.588 101.63C165.798 110.35 170.488 113.999 174.138 112.049C176.478 110.739 176.738 111.129 177.258 115.169C178.038 121.939 175.048 124.289 168.018 122.329C165.148 121.549 162.028 120.12 160.978 119.21C159.938 118.17 157.728 117.119 156.028 116.859L152.908 116.469L156.418 113.999C160.068 111.649 160.068 111.649 166.188 115.689C169.448 117.909 172.568 119.469 172.828 119.079C173.228 118.689 173.228 118.299 172.958 118.039C172.698 117.909 170.228 115.819 167.628 113.609C163.198 109.829 162.158 109.439 156.288 110.219C151.608 110.739 148.478 110.349 145.088 108.789C142.488 107.489 139.748 106.84 138.838 107.1C137.928 107.36 138.968 108.399 140.928 109.309C142.878 110.349 144.308 111.789 143.918 112.699C143.268 114.389 146.398 117.65 149.648 118.82C153.038 119.86 144.178 122.589 139.748 121.679C134.808 120.769 131.418 121.939 131.418 124.549C131.418 127.019 135.198 130.019 138.318 130.149C139.488 130.149 140.538 130.799 140.538 131.579C140.538 132.489 137.668 132.879 132.198 132.619C119.178 131.839 116.178 136.79 126.858 141.35L130.768 143.039L127.248 143.169C125.298 143.169 121.258 142.259 118.398 141.089C115.528 139.919 112.268 139.269 111.228 139.789C108.888 140.699 108.628 145.909 110.838 148.119C112.928 150.199 111.488 150.07 106.148 147.6C101.198 145.26 97.5575 145.909 97.5575 149.029C97.5575 152.029 106.018 155.149 115.138 155.539C122.558 155.809 123.078 156.069 127.508 161.41C130.768 165.44 131.548 167.14 130.248 167.66C129.338 167.92 127.378 169.349 126.078 170.649C124.648 172.079 123.078 173.13 122.558 173.13C121.258 173.13 115.138 165.179 115.138 163.359C115.138 162.579 112.798 161.409 109.798 160.749C106.798 159.969 103.548 158.669 102.508 157.889C101.458 156.979 98.0776 155.41 95.0776 154.24C84.2676 150.47 78.4076 157.37 88.1776 162.71C91.6976 164.66 92.0875 165.18 89.7375 164.66C87.9175 164.27 83.6176 163.619 79.9776 163.229C74.3776 162.579 73.0676 162.839 70.8576 165.179C68.9076 167.529 68.6476 168.57 69.8176 170.52C71.1176 172.48 70.8576 172.999 68.2476 173.649C66.4276 174.169 64.3476 175.729 63.5676 177.289C62.2576 179.639 62.5176 180.419 64.8676 182.369L67.7276 184.719L64.0876 185.63C57.5776 187.19 48.3275 192.529 43.3775 197.479C38.0375 202.949 31.6575 215.579 30.4875 222.619C29.8275 226.909 29.8275 226.91 31.2675 223.92C32.1775 222.1 34.1276 217.669 35.8276 213.889C39.7276 204.769 49.2376 195.009 57.5776 191.229C66.9476 187.059 81.4076 186.93 89.8676 191.1C114.098 202.82 121.128 234.08 107.198 267.94C102.768 278.49 101.068 291.64 104.068 291.64C104.848 291.64 105.368 289.3 105.368 286.56C105.368 283.83 107.458 276.27 109.928 269.76C115.788 254.52 117.218 247.619 117.218 234.989C117.218 221.839 113.708 209.85 106.928 201.13L101.988 194.619L106.798 189.799C109.538 187.059 112.138 184.85 112.798 184.85C113.318 184.85 115.918 182.759 118.398 180.289C120.868 177.819 123.468 175.729 124.258 175.729C125.038 175.729 126.598 174.689 127.768 173.389C128.808 172.219 132.328 169.089 135.458 166.609C142.228 161.139 150.168 153.2 155.378 146.82C159.938 141.09 167.888 127.929 167.888 126.109C167.888 125.459 169.318 125.199 171.138 125.719C173.098 126.239 175.308 125.849 176.348 124.939C178.038 123.509 178.298 124.549 178.298 132.359C178.298 145.779 180.388 148.249 200.438 158.279L216.718 166.479L207.608 165.829C196.538 164.919 185.728 168.05 174.528 175.6C155.898 188.1 143.528 196.96 140.928 199.96C136.498 204.77 137.148 211.68 143.788 232.38C150.688 253.74 154.858 272.889 154.858 283.049C154.858 287.079 155.508 290.34 156.158 290.34C158.118 290.34 157.728 275.099 155.378 262.859C154.338 256.999 150.428 243.059 146.918 231.989C143.398 220.919 140.538 210.11 140.538 208.16C140.538 203.73 142.748 201.259 153.688 193.829C158.248 190.709 165.538 185.629 169.838 182.499C178.428 176.119 187.418 171.429 193.148 169.999C200.438 168.179 215.678 169.09 226.488 171.82C235.218 174.04 237.948 174.3 241.598 173.13C247.588 171.17 250.458 165.44 249.408 158.02C248.758 153.33 249.148 151.899 251.368 149.809C252.928 148.379 253.838 146.04 253.708 144.21C253.448 142.52 254.228 139.789 255.398 138.089C256.968 135.879 257.228 134.189 256.448 131.969C254.748 127.539 256.188 124.939 260.608 124.029C262.698 123.639 265.298 121.939 266.338 120.249C268.298 117.519 268.038 116.469 263.218 105.789C260.348 99.5395 257.098 92.6395 256.058 90.5595C254.228 87.1695 254.228 86.2595 255.928 83.1295C258.268 78.5695 258.268 75.4495 255.928 67.1095C254.878 63.4695 253.318 56.4295 252.538 51.3595C248.758 28.0395 229.488 9.8095 201.098 2.5195C188.978 -0.610502 169.448 -0.870503 158.898 1.9995ZM174.398 87.4295C174.398 87.9495 173.878 88.4695 173.228 88.4695C172.438 88.4695 171.658 87.9495 171.268 87.4295C170.878 86.7795 171.398 86.2595 172.438 86.2595C173.488 86.2595 174.398 86.7795 174.398 87.4295ZM172.568 90.6895C172.178 91.2095 172.308 92.1195 173.098 92.8995C173.748 93.8095 173.748 95.2395 173.098 96.2895C172.048 97.9795 171.528 97.8495 169.838 95.6395C167.888 93.0295 167.888 93.0295 168.668 95.6395C169.318 97.7195 169.188 97.8495 168.018 96.2895C167.228 95.2395 166.578 93.2895 166.578 91.8595C166.578 89.7795 166.838 89.6395 168.798 91.2095C170.748 92.8995 170.748 92.7695 169.318 90.0395C167.758 87.1695 167.888 87.0395 170.488 88.4695C172.048 89.2495 172.958 90.2995 172.568 90.6895ZM195.628 112.439C197.058 112.309 197.708 112.44 197.318 112.96C195.628 114.52 192.628 114.259 191.068 112.179C189.638 110.219 189.638 110.219 191.328 111.389C192.368 112.179 194.318 112.699 195.628 112.439ZM152.648 115.299C151.868 117.519 150.688 117.649 148.608 115.559C146.138 113.089 146.788 112.179 150.168 112.829C152.258 113.219 153.168 114.129 152.648 115.299ZM160.588 122.46C163.198 124.03 165.278 125.33 165.278 125.46C165.278 126.89 160.978 134.059 160.198 134.059C159.548 134.059 157.468 132.489 155.508 130.669C152.388 127.799 151.088 127.409 146.398 128.059C141.058 128.979 134.018 127.019 134.018 124.809C134.018 124.289 137.148 123.899 141.058 124.029C145.618 124.159 149.128 123.38 151.088 122.07C155.118 119.21 155.248 119.21 160.588 122.46ZM150.948 131.189C150.948 131.709 152.778 133.269 154.858 134.449C159.028 136.919 158.898 137.699 154.208 143.689C152.388 146.169 152.128 146.039 147.048 142.649C142.878 139.919 140.798 139.399 137.278 140.049C132.198 140.959 123.208 138.35 123.998 136.27C124.388 135.36 125.428 134.97 126.338 135.1C131.678 136.4 139.098 135.619 143.788 133.139C149.648 130.019 150.948 129.759 150.948 131.189ZM128.028 145.779C132.848 145.779 134.018 146.43 138.188 151.38L142.878 157.109L138.578 160.49L134.408 163.88L130.508 159.71C128.288 157.37 126.858 154.759 127.118 153.979C127.768 152.289 126.858 151.769 120.868 150.469C119.048 150.069 115.918 148.509 113.968 146.949C109.278 143.169 111.878 141.349 118.138 143.949C120.608 144.999 125.038 145.779 128.028 145.779ZM146.138 145.259C149.778 148.379 149.778 148.509 147.698 151.899L145.478 155.279L141.578 151.249C138.708 148.379 137.928 146.69 138.578 144.6C139.618 141.09 141.578 141.219 146.138 145.259ZM110.578 150.199C112.398 150.339 115.008 151.119 116.438 152.029C118.788 153.459 118.398 153.589 114.228 152.939C102.248 151.379 100.158 150.729 100.158 149.419C100.158 148.639 101.458 148.379 103.808 149.029C105.758 149.549 108.758 150.069 110.578 150.199ZM98.0776 158.279C100.288 159.189 101.328 159.97 100.288 160.1C96.6476 160.1 101.728 164.009 105.628 164.009C108.368 164.009 110.708 165.439 114.488 169.479L119.568 175.079L115.528 178.729L111.488 182.369L107.068 178.079C104.718 175.729 103.028 173.13 103.288 172.35C104.068 170.39 96.9075 164.009 90.6575 161.139C85.7075 158.799 84.5276 156.849 87.5276 155.809C89.3476 155.019 92.3476 155.809 98.0776 158.279ZM90.1275 167.529C95.5975 168.179 96.9076 168.959 99.6376 172.999C101.328 175.599 104.068 179.249 105.628 181.199L108.498 184.85L103.678 189.41C99.2476 193.7 98.2076 193.959 98.7276 190.969C98.8576 190.449 97.2975 187.84 95.3375 185.24C93.2575 182.63 91.8275 179.379 92.0875 178.079C92.6075 175.469 91.9576 175.21 81.9276 173.13C78.0176 172.35 73.8476 171.17 72.8076 170.52C69.6876 168.31 75.0276 164.92 79.9776 165.96C82.1876 166.35 86.7475 167.139 90.1275 167.529ZM82.7076 177.419C84.9176 178.339 88.4376 181.069 90.5176 183.549C92.6076 186.019 94.6875 188.23 95.3375 188.49C95.8575 188.76 96.2576 189.409 96.2576 190.059C96.2576 190.579 93.9076 189.93 91.0476 188.49C88.1776 187.06 82.3175 185.499 78.0175 184.979C73.3275 184.329 69.2975 183.019 67.5975 181.589C64.9975 179.249 64.9976 178.989 67.0776 177.419C69.9476 175.339 77.2376 175.339 82.7076 177.419Z" fill="black"/>
<path d="M225.318 77.7895C223.238 81.0495 222.058 84.8295 221.798 89.2495C221.668 93.0295 220.888 97.3295 219.978 98.8895C218.548 101.499 217.898 101.63 209.818 100.85C204.218 100.32 199.918 99.0195 197.838 97.4595C196.018 96.0295 193.148 94.3295 191.328 93.5495C189.508 92.7695 186.508 91.3395 184.558 90.4295C182.468 89.3795 180.908 89.1195 180.908 89.7795C180.908 91.3395 186.248 94.9795 188.458 94.9795C189.508 94.9795 192.238 96.6795 194.578 98.7595C198.228 101.889 200.438 102.669 208.778 103.449C220.498 104.489 221.538 103.97 224.408 95.2395C225.578 91.9895 227.658 87.9495 229.228 86.3895C231.178 84.3095 231.698 82.2195 231.438 78.5695C230.918 72.1895 229.098 71.9295 225.318 77.7895Z" fill="black"/>
<path d="M240.558 85.7395C234.308 89.6395 232.998 91.7295 232.998 97.4595C232.998 100.98 237.558 106.71 240.428 106.71C243.028 106.71 245.898 102.149 245.248 99.1495C244.728 97.3295 245.768 94.1995 247.848 90.4295C253.318 81.3095 250.458 79.4895 240.558 85.7395ZM245.768 87.4295C245.508 88.3395 244.468 90.0395 243.418 91.0795C242.378 92.1195 241.338 95.1095 241.338 97.5895C241.338 100.579 240.688 102.149 239.388 102.149C238.338 102.149 237.558 100.979 237.688 99.1495C237.688 97.5895 237.298 96.2895 236.648 96.2895C234.178 96.2895 235.868 93.4195 239.908 91.0795C242.118 89.6395 243.548 88.4695 242.768 88.4695C242.118 88.4695 242.378 87.8195 243.418 87.1695C245.898 85.4795 246.028 85.6095 245.768 87.4295Z" fill="black"/>
<path d="M252.278 106.32C249.408 109.57 245.768 118.56 246.548 120.64C247.328 122.59 252.018 122.86 253.188 121.03C253.578 120.25 255.668 119.729 257.748 119.729C263.088 119.729 263.478 118.04 259.698 110.61C256.058 103.45 255.268 102.93 252.278 106.32ZM254.748 108.92C254.228 109.31 254.618 110.609 255.538 111.649C256.708 113.349 256.708 113.479 255.538 112.699C253.058 111.259 253.448 113.089 256.188 115.559C257.488 116.859 257.878 117.39 257.098 116.86C254.878 115.43 253.578 115.559 252.538 117.119C252.018 118.039 251.238 118.169 250.978 117.649C250.198 116.209 253.448 108.009 254.748 108.009C255.138 108.009 255.138 108.4 254.748 108.92Z" fill="black"/>
<path d="M29.1776 263.25C30.2276 267.55 30.2276 269.89 29.1776 285.91C28.5276 296.2 28.6576 300.63 29.6976 301.28C30.6176 301.93 31.1376 301.15 31.1376 299.2C31.1376 297.5 31.7876 289.69 32.4376 281.74C33.3476 271.98 33.4776 266.25 32.5676 263.9C30.8776 259.6 28.1376 259.21 29.1776 263.25Z" fill="black"/>
<path fill-rule="evenodd" clip-rule="evenodd" d="M98.3175 156.369C98.2375 154.589 97.1575 153.55 98.8275 152.16C99.2975 151.76 102.878 150.679 102.878 151.969" fill="black"/>
<path fill-rule="evenodd" clip-rule="evenodd" d="M118.598 143.029C118.598 140.169 121.318 139.539 123.628 139.539Z" fill="black"/>
<path fill-rule="evenodd" clip-rule="evenodd" d="M130.198 132.85C132.338 130.8 132.838 127.17 136.378 127.44Z" fill="black"/>
</svg>
