<svg version="1.2" xmlns="http://www.w3.org/2000/svg" viewBox="0 0 600 400" width="600" height="400">
	<style>
		.s0 { fill: #000000 } 
	</style>
	<g>
		<path class="s0" d="m324.89 44c-28.91 7.81-48.32 33.6-48.32 64.33 0 11.98 2.61 21.62 8.6 31.39 2.47 4.04 4.43 8.6 4.43 10.16 0 7.03-8.99 14.06-35.82 28.13-22.53 11.72-33.08 18.88-45.32 30.47-28.13 26.83-42.85 65.77-42.46 112.14 0.26 26.05 1.82 26.44 2.74 0.65 1.3-35.42 5.6-54.44 17.45-77.49 14.06-27.35 32.43-44.28 67.59-62.12 25.27-12.9 34.64-19.67 38.03-27.61 1.82-4.3 1.69-4.82-3.26-14.33-2.86-5.47-6.12-13.02-7.29-16.93-7.55-25.66 7.42-59 32.17-70.98 26.83-13.15 65.51-6.9 87.65 14.33 8.46 8.2 13.15 17.71 14.98 30.08 0.65 4.95 2.21 11.85 3.38 15.5 1.95 6.25 1.95 7.03 0 12.11l-2.21 5.34 6.64 13.94c3.52 7.68 6.25 15.1 6.12 16.54-0.26 1.43-1.95 2.99-4.3 3.77-6.51 2.09-7.55 3.52-6.64 9.51 0.52 3.91 0.13 5.99-1.17 7.03-1.43 1.17-1.82 0.78-2.35-2.21l-0.52-3.65-0.26 3.52c-0.13 4.56-2.73 4.82-2.73 0.39 0-1.82-0.52-3.26-1.04-3.26-0.66 0-1.05 1.31-1.05 2.74 0.13 1.56-0.65 3.12-1.43 3.38-1.17 0.4-1.82-0.91-1.82-3.77-0.26-4.04-0.26-4.04-0.78-0.65-0.39 2.6-1.18 3.51-2.74 3.25-1.43-0.26-2.08-1.43-1.82-3.38 0.26-1.57-0.26-2.87-0.91-2.87-0.78 0-1.44 1.17-1.44 2.74 0 1.82-0.65 2.47-2.21 2.21-1.56-0.26-2.21-1.43-1.95-3.39 0.26-1.56-0.26-2.86-0.92-2.86-0.78 0-1.43 1.17-1.43 2.6 0 2.74-0.91 3.26-3.64 1.57-0.92-0.66-1.31-2.09-0.79-3.26 0.39-1.3 0.13-2.21-0.65-2.21-0.78 0-1.43 0.91-1.43 1.95 0 1.17-1.17 1.95-2.73 1.95-2.09 0-2.61-0.65-2.09-2.6 0.39-1.82 0-2.61-1.3-2.61-1.56 0-1.82-0.91-1.17-4.29 0.65-3.39 0.13-5.21-1.83-7.82-2.86-3.64-13.02-7.42-19.79-7.42-3.13 0-3.65 0.52-3.65 3.91 0 2.73 1.04 4.55 3.39 6.12 3.38 2.21 3.51 2.08 6.25-1.31 1.56-1.95 3.52-3.51 4.3-3.51 2.86 0 4.69 4.17 4.55 10.16-0.26 4.29 0.53 7.42 2.48 10.68 2.47 4.03 2.86 4.29 4.43 2.21 1.82-2.61 6.38-1.56 5.34 1.17-0.39 0.91-0.13 2.09 0.52 2.48 0.78 0.52 1.3-0.13 1.3-1.18 0-1.3 1.17-2.08 2.74-2.08 2.08 0 2.6 0.65 2.08 2.61-0.78 2.99 1.04 3.51 2.21 0.65 0.39-1.05 1.7-1.96 2.87-1.96 1.56 0 1.95 0.78 1.3 3.26-0.52 1.82-0.26 3.25 0.39 3.25 0.65 0 1.43-1.17 1.82-2.73 0.92-3.65 4.3-2.47 3.78 1.43-0.26 1.83 0 2.61 0.91 2.09 0.78-0.52 1.44-1.83 1.44-2.87 0-1.04 0.91-1.82 1.95-1.82 1.69 0 1.82 0.52 0.65 2.6-1.04 1.96-1.04 2.61 0.13 2.61 0.78 0 1.69-1.18 2.08-2.61 0.4-1.43 1.18-2.21 1.83-1.95 0.52 0.39 0.78 1.69 0.39 2.99-0.65 2.09-0.65 2.09 1.17-0.13 1.04-1.17 2.21-2.21 2.74-2.21 1.82 0 0.65 3.65-1.96 5.99-2.34 2.08-2.6 3.39-1.95 9.12 0.65 5.6 0.26 7.29-2.08 10.29-2.48 3.25-3.39 3.51-9.12 2.99-7.56-0.78-43.63-18.49-49.88-24.61-3.65-3.52-3.78-4.43-4.69-18.37-0.52-8.07-1.3-16.02-1.82-17.58-0.79-2.47-0.53-2.73 2.21-2.21 2.87 0.65 2.87 0.65 0.52-1.31-1.43-1.17-2.73-4.16-2.99-6.9-0.27-2.6-1.05-5.47-1.7-6.25-0.65-0.78-0.91-2.73-0.39-4.3 1.56-6.25-5.34-8.98-10.03-3.9-4.69 5.08-2.73 15.36 3 15.36 5.6 0 8.2 5.73 4.17 9.12-3 2.48-7.17-1.04-11.33-9.38-8.6-17.06-0.39-33.73 12.76-25.91 5.34 3.12 5.86 1.43 0.91-2.48-6.9-5.34-17.19-0.65-19.93 8.99-1.69 6.38-0.39 13.15 4.43 21.1 5.21 8.72 9.9 12.37 13.55 10.42 2.34-1.31 2.6-0.92 3.12 3.12 0.78 6.77-2.21 9.12-9.24 7.16-2.87-0.78-5.99-2.21-7.04-3.12-1.04-1.04-3.25-2.09-4.95-2.35l-3.12-0.39 3.51-2.47c3.65-2.35 3.65-2.35 9.77 1.69 3.26 2.22 6.38 3.78 6.64 3.39 0.4-0.39 0.4-0.78 0.13-1.04-0.26-0.13-2.73-2.22-5.33-4.43-4.43-3.78-5.47-4.17-11.34-3.39-4.68 0.52-7.81 0.13-11.2-1.43-2.6-1.3-5.34-1.95-6.25-1.69-0.91 0.26 0.13 1.3 2.09 2.21 1.95 1.04 3.38 2.48 2.99 3.39-0.65 1.69 2.48 4.95 5.73 6.12 3.39 1.04-5.47 3.77-9.9 2.86-4.94-0.91-8.33 0.26-8.33 2.87 0 2.47 3.78 5.47 6.9 5.6 1.17 0 2.22 0.65 2.22 1.43 0 0.91-2.87 1.3-8.34 1.04-13.02-0.78-16.02 4.17-5.34 8.73l3.91 1.69-3.52 0.13c-1.95 0-5.99-0.91-8.85-2.08-2.87-1.17-6.13-1.82-7.17-1.3-2.34 0.91-2.6 6.12-0.39 8.33 2.09 2.08 0.65 1.95-4.69-0.52-4.95-2.34-8.59-1.69-8.59 1.43 0 3 8.46 6.12 17.58 6.51 7.42 0.27 7.94 0.53 12.37 5.87 3.26 4.03 4.04 5.73 2.74 6.25-0.91 0.26-2.87 1.69-4.17 2.99-1.43 1.43-3 2.48-3.52 2.48-1.3 0-7.42-7.95-7.42-9.77 0-0.78-2.34-1.95-5.34-2.61-3-0.78-6.25-2.08-7.29-2.86-1.05-0.91-4.43-2.48-7.43-3.65-10.81-3.77-16.67 3.13-6.9 8.47 3.52 1.95 3.91 2.47 1.56 1.95-1.82-0.39-6.12-1.04-9.76-1.43-5.6-0.65-6.91-0.39-9.12 1.95-1.95 2.35-2.21 3.39-1.04 5.34 1.3 1.96 1.04 2.48-1.57 3.13-1.82 0.52-3.9 2.08-4.68 3.64-1.31 2.35-1.05 3.13 1.3 5.08l2.86 2.35-3.64 0.91c-6.51 1.56-15.76 6.9-20.71 11.85-5.34 5.47-11.72 18.1-12.89 25.14-0.66 4.29-0.66 4.29 0.78 1.3 0.91-1.82 2.86-6.25 4.56-10.03 3.9-9.12 13.41-18.88 21.75-22.66 9.37-4.17 23.83-4.3 32.29-0.13 24.23 11.72 31.26 42.98 17.33 76.84-4.43 10.55-6.13 23.7-3.13 23.7 0.78 0 1.3-2.34 1.3-5.08 0-2.73 2.09-10.29 4.56-16.8 5.86-15.24 7.29-22.14 7.29-34.77 0-13.15-3.51-25.14-10.29-33.86l-4.94-6.51 4.81-4.82c2.74-2.74 5.34-4.95 6-4.95 0.52 0 3.12-2.09 5.6-4.56 2.47-2.47 5.07-4.56 5.86-4.56 0.78 0 2.34-1.04 3.51-2.34 1.04-1.17 4.56-4.3 7.69-6.78 6.77-5.47 14.71-13.41 19.92-19.79 4.56-5.73 12.51-18.89 12.51-20.71 0-0.65 1.43-0.91 3.25-0.39 1.96 0.52 4.17 0.13 5.21-0.78 1.69-1.43 1.95-0.39 1.95 7.42 0 13.42 2.09 15.89 22.14 25.92l16.28 8.2-9.11-0.65c-11.07-0.91-21.88 2.22-33.08 9.77-18.63 12.5-31 21.36-33.6 24.36-4.43 4.81-3.78 11.72 2.86 32.42 6.9 21.36 11.07 40.51 11.07 50.67 0 4.03 0.65 7.29 1.3 7.29 1.96 0 1.57-15.24-0.78-27.48-1.04-5.86-4.95-19.8-8.46-30.87-3.52-11.07-6.38-21.88-6.38-23.83 0-4.43 2.21-6.9 13.15-14.33 4.56-3.12 11.85-8.2 16.15-11.33 8.59-6.38 17.58-11.07 23.31-12.5 7.29-1.82 22.53-0.91 33.34 1.82 8.73 2.22 11.46 2.48 15.11 1.31 5.99-1.96 8.86-7.69 7.81-15.11-0.65-4.69-0.26-6.12 1.96-8.21 1.56-1.43 2.47-3.77 2.34-5.6-0.26-1.69 0.52-4.42 1.69-6.12 1.57-2.21 1.83-3.9 1.05-6.12-1.7-4.43-0.26-7.03 4.16-7.94 2.09-0.39 4.69-2.09 5.73-3.78 1.96-2.73 1.7-3.78-3.12-14.46-2.87-6.25-6.12-13.15-7.16-15.23-1.83-3.39-1.83-4.3-0.13-7.43 2.34-4.56 2.34-7.68 0-16.02-1.05-3.64-2.61-10.68-3.39-15.75-3.78-23.32-23.05-41.55-51.44-48.84-12.12-3.13-31.65-3.39-42.2-0.52zm15.5 85.43c0 0.52-0.52 1.04-1.17 1.04-0.79 0-1.57-0.52-1.96-1.04-0.39-0.65 0.13-1.17 1.17-1.17 1.05 0 1.96 0.52 1.96 1.17zm-1.83 3.26c-0.39 0.52-0.26 1.43 0.53 2.21 0.65 0.91 0.65 2.34 0 3.39-1.05 1.69-1.57 1.56-3.26-0.65-1.95-2.61-1.95-2.61-1.17 0 0.65 2.08 0.52 2.21-0.65 0.65-0.79-1.05-1.44-3-1.44-4.43 0-2.08 0.26-2.22 2.22-0.65 1.95 1.69 1.95 1.56 0.52-1.17-1.56-2.87-1.43-3 1.17-1.57 1.56 0.78 2.47 1.83 2.08 2.22zm23.06 21.75c1.43-0.13 2.08 0 1.69 0.52-1.69 1.56-4.69 1.3-6.25-0.78-1.43-1.96-1.43-1.96 0.26-0.79 1.04 0.79 2.99 1.31 4.3 1.05zm-42.98 2.86c-0.78 2.22-1.96 2.35-4.04 0.26-2.47-2.47-1.82-3.38 1.56-2.73 2.09 0.39 3 1.3 2.48 2.47zm7.94 7.16c2.61 1.57 4.69 2.87 4.69 3 0 1.43-4.3 8.6-5.08 8.6-0.65 0-2.73-1.57-4.69-3.39-3.12-2.87-4.42-3.26-9.11-2.61-5.34 0.92-12.38-1.04-12.38-3.25 0-0.52 3.13-0.91 7.04-0.78 4.56 0.13 8.07-0.65 10.03-1.96 4.03-2.86 4.16-2.86 9.5 0.39zm-9.64 8.73c0 0.52 1.83 2.08 3.91 3.26 4.17 2.47 4.04 3.25-0.65 9.24-1.82 2.48-2.08 2.35-7.16-1.04-4.17-2.73-6.25-3.25-9.77-2.6-5.08 0.91-14.07-1.7-13.28-3.78 0.39-0.91 1.43-1.3 2.34-1.17 5.34 1.3 12.76 0.52 17.45-1.96 5.86-3.12 7.16-3.38 7.16-1.95zm-22.92 14.59c4.82 0 5.99 0.65 10.16 5.6l4.69 5.73-4.3 3.38-4.17 3.39-3.9-4.17c-2.22-2.34-3.65-4.95-3.39-5.73 0.65-1.69-0.26-2.21-6.25-3.51-1.82-0.4-4.95-1.96-6.9-3.52-4.69-3.78-2.09-5.6 4.17-3 2.47 1.05 6.9 1.83 9.89 1.83zm18.11-0.52c3.64 3.12 3.64 3.25 1.56 6.64l-2.22 3.38-3.9-4.03c-2.87-2.87-3.65-4.56-3-6.65 1.04-3.51 3-3.38 7.56 0.66zm-35.56 4.94c1.82 0.14 4.43 0.92 5.86 1.83 2.35 1.43 1.96 1.56-2.21 0.91-11.98-1.56-14.07-2.21-14.07-3.52 0-0.78 1.3-1.04 3.65-0.39 1.95 0.52 4.95 1.04 6.77 1.17zm-12.5 8.08c2.21 0.91 3.25 1.69 2.21 1.82-3.64 0 1.44 3.91 5.34 3.91 2.74 0 5.08 1.43 8.86 5.47l5.08 5.6-4.04 3.65-4.04 3.64-4.42-4.29c-2.35-2.35-4.04-4.95-3.78-5.73 0.78-1.96-6.38-8.34-12.63-11.21-4.95-2.34-6.13-4.29-3.13-5.33 1.82-0.79 4.82 0 10.55 2.47zm-7.95 9.25c5.47 0.65 6.78 1.43 9.51 5.47 1.69 2.6 4.43 6.25 5.99 8.2l2.87 3.65-4.82 4.56c-4.43 4.29-5.47 4.55-4.95 1.56 0.13-0.52-1.43-3.13-3.39-5.73-2.08-2.61-3.51-5.86-3.25-7.16 0.52-2.61-0.13-2.87-10.16-4.95-3.91-0.78-8.08-1.96-9.12-2.61-3.12-2.21 2.22-5.6 7.17-4.56 2.21 0.39 6.77 1.18 10.15 1.57zm-7.42 9.89c2.21 0.92 5.73 3.65 7.81 6.13 2.09 2.47 4.17 4.68 4.82 4.94 0.52 0.27 0.92 0.92 0.92 1.57 0 0.52-2.35-0.13-5.21-1.57-2.87-1.43-8.73-2.99-13.03-3.51-4.69-0.65-8.72-1.96-10.42-3.39-2.6-2.34-2.6-2.6-0.52-4.17 2.87-2.08 10.16-2.08 15.63 0z"/>
		<path class="s0" d="m391.31 119.79c-2.08 3.26-3.26 7.04-3.52 11.46-0.13 3.78-0.91 8.08-1.82 9.64-1.43 2.61-2.08 2.74-10.16 1.96-5.6-0.53-9.9-1.83-11.98-3.39-1.82-1.43-4.69-3.13-6.51-3.91-1.82-0.78-4.82-2.21-6.77-3.12-2.09-1.05-3.65-1.31-3.65-0.65 0 1.56 5.34 5.2 7.55 5.2 1.05 0 3.78 1.7 6.12 3.78 3.65 3.13 5.86 3.91 14.2 4.69 11.72 1.04 12.76 0.52 15.63-8.21 1.17-3.25 3.25-7.29 4.82-8.85 1.95-2.08 2.47-4.17 2.21-7.82-0.52-6.38-2.34-6.64-6.12-0.78z"/>
		<path class="s0" d="m406.55 127.74c-6.25 3.9-7.56 5.99-7.56 11.72 0 3.52 4.56 9.25 7.43 9.25 2.6 0 5.47-4.56 4.82-7.56-0.52-1.82 0.52-4.95 2.6-8.72 5.47-9.12 2.61-10.94-7.29-4.69zm5.21 1.69c-0.26 0.91-1.3 2.61-2.35 3.65-1.04 1.04-2.08 4.03-2.08 6.51 0 2.99-0.65 4.56-1.95 4.56-1.05 0-1.83-1.17-1.7-3 0-1.56-0.39-2.86-1.04-2.86-2.47 0-0.78-2.87 3.26-5.21 2.21-1.44 3.64-2.61 2.86-2.61-0.65 0-0.39-0.65 0.65-1.3 2.48-1.69 2.61-1.56 2.35 0.26z"/>
		<path class="s0" d="m418.27 148.32c-2.87 3.25-6.51 12.24-5.73 14.32 0.78 1.95 5.47 2.22 6.64 0.39 0.39-0.78 2.48-1.3 4.56-1.3 5.34 0 5.73-1.69 1.95-9.12-3.64-7.16-4.43-7.68-7.42-4.29zm2.47 2.6c-0.52 0.39-0.13 1.69 0.79 2.73 1.17 1.7 1.17 1.83 0 1.05-2.48-1.44-2.09 0.39 0.65 2.86 1.3 1.3 1.69 1.83 0.91 1.3-2.22-1.43-3.52-1.3-4.56 0.26-0.52 0.92-1.3 1.05-1.56 0.53-0.78-1.44 2.47-9.64 3.77-9.64 0.39 0 0.39 0.39 0 0.91z"/>
		<path class="s0" d="m195.17 305.25c1.05 4.3 1.05 6.64 0 22.66-0.65 10.29-0.52 14.72 0.52 15.37 0.92 0.65 1.44-0.13 1.44-2.08 0-1.7 0.65-9.51 1.3-17.46 0.91-9.76 1.04-15.49 0.13-17.84-1.69-4.3-4.43-4.69-3.39-0.65z"/>
		<path id="Shape 1" fill-rule="evenodd" class="s0" d="m264.31 198.37c-0.08-1.78-1.16-2.82 0.51-4.21 0.47-0.4 4.05-1.48 4.05-0.19"/>
		<path id="Shape 2" fill-rule="evenodd" class="s0" d="m284.59 185.03c0-2.86 2.72-3.49 5.03-3.49"/>
		<path id="Shape 3" fill-rule="evenodd" class="s0" d="m296.19 174.85c2.14-2.05 2.64-5.68 6.18-5.41"/>
	</g>
</svg>