<?xml version="1.0" standalone="no"?>
<!DOCTYPE svg PUBLIC "-//W3C//DTD SVG 20010904//EN"
 "http://www.w3.org/TR/2001/REC-SVG-20010904/DTD/svg10.dtd">
<svg version="1.0" xmlns="http://www.w3.org/2000/svg"
 width="500.000000pt" height="453.000000pt" viewBox="0 0 500.000000 453.000000"
 preserveAspectRatio="xMidYMid meet">

<g transform="translate(0.000000,453.000000) scale(0.100000,-0.100000)"
fill="#000000" stroke="none">
<path d="M1805 4507 c-38 -13 -147 -62 -241 -110 -504 -253 -899 -395 -1392
-502 -173 -37 -211 -57 -135 -71 23 -4 49 -20 68 -39 17 -19 53 -39 85 -50 30
-10 73 -33 94 -52 46 -38 90 -53 162 -53 47 0 55 -4 91 -39 46 -47 118 -71
211 -71 48 0 71 -5 92 -20 37 -27 104 -50 144 -50 17 0 41 -6 52 -13 105 -61
105 -61 209 -62 76 -1 108 -5 134 -19 64 -34 134 -32 253 7 107 35 108 35 102
12 -19 -77 117 -69 249 15 l47 30 -15 -30 c-23 -44 -19 -60 13 -60 76 1 155
67 250 209 l62 92 0 143 c0 78 -2 145 -5 148 -3 2 -35 -2 -72 -10 -90 -18
-161 -12 -185 18 -28 34 -22 80 22 172 93 194 72 326 -62 394 -73 37 -145 40
-233 11z"/>
<path d="M3010 4514 c-59 -18 -118 -68 -141 -118 -35 -76 -21 -171 45 -306 49
-102 48 -148 -5 -175 -42 -22 -127 -18 -221 11 -17 5 -18 -6 -18 -143 0 -140
2 -150 26 -193 90 -158 202 -260 284 -260 34 0 37 11 15 54 -21 39 -19 40 14
17 57 -41 155 -81 198 -81 50 0 77 22 69 56 l-6 22 88 -31 c114 -40 217 -44
276 -9 35 21 47 23 111 17 82 -8 135 4 190 41 23 15 64 30 99 35 34 6 85 23
115 40 44 23 67 29 116 29 91 0 163 25 207 71 35 37 40 39 98 39 71 0 112 15
162 59 20 17 60 39 89 47 35 11 64 28 84 50 17 19 40 34 51 34 29 0 51 17 38
30 -10 10 -67 25 -349 90 -172 39 -563 168 -745 245 -74 31 -254 115 -400 185
-337 163 -384 177 -490 144z"/>
<path d="M2447 4429 c-181 -43 -228 -293 -76 -394 l45 -30 7 -449 c4 -247 7
-532 7 -634 l0 -184 31 6 c17 3 51 6 75 6 l44 0 0 630 c0 347 4 630 8 630 20
0 96 77 113 114 74 164 -79 347 -254 305z"/>
<path d="M1944 3190 c-225 -32 -333 -124 -334 -285 0 -114 69 -213 220 -314
49 -33 98 -62 110 -66 16 -5 34 6 83 51 54 50 127 93 222 129 15 6 6 10 -40
20 -201 43 -309 89 -345 148 -38 61 -18 102 49 102 34 0 58 -12 160 -77 39
-25 119 -38 165 -28 50 11 92 52 99 96 12 74 -47 168 -129 205 -48 22 -174 31
-260 19z"/>
<path d="M2863 3190 c-59 -12 -94 -33 -137 -80 -64 -70 -80 -133 -51 -189 18
-37 60 -51 146 -51 81 0 109 10 168 58 38 31 52 36 95 37 43 0 52 -3 65 -26
13 -23 12 -30 -5 -65 -48 -99 -220 -149 -645 -188 -95 -9 -193 -24 -230 -36
-209 -64 -387 -285 -364 -454 13 -102 80 -199 168 -246 l43 -23 138 68 137 68
-33 19 c-81 49 -118 102 -118 172 0 101 82 138 355 161 368 31 665 171 754
358 40 83 46 133 27 202 -20 66 -58 112 -125 148 -94 52 -294 86 -388 67z"/>
<path d="M2948 2414 c-37 -13 -108 -29 -157 -36 -50 -7 -91 -16 -91 -20 0 -4
5 -8 10 -8 19 0 50 -64 50 -103 0 -102 -86 -169 -310 -242 -63 -20 -128 -44
-145 -52 -96 -50 -237 -166 -275 -227 -29 -48 -41 -114 -29 -166 13 -59 68
-139 125 -180 l45 -32 45 32 c24 17 78 47 120 66 l75 35 -32 22 c-96 65 -96
162 0 221 49 30 95 48 246 96 223 72 372 163 429 264 32 55 50 138 42 193 -7
55 -54 164 -70 162 -6 -1 -41 -12 -78 -25z"/>
<path d="M2500 2343 c-76 -12 -70 1 -70 -144 0 -121 1 -131 18 -124 9 4 40 16
68 27 l51 20 7 66 c3 37 6 88 6 115 0 51 -3 52 -80 40z"/>
<path d="M2665 1775 c-99 -34 -192 -68 -207 -74 -28 -10 -28 -11 -28 -111 0
-114 -2 -112 85 -81 l50 18 3 101 3 102 37 -19 c65 -33 102 -74 102 -113 0
-58 -45 -90 -227 -162 -193 -77 -239 -103 -296 -166 -48 -53 -67 -103 -67
-176 0 -58 37 -143 71 -168 21 -14 25 -14 44 0 11 8 48 33 82 56 l61 41 -5 53
c-9 81 4 90 223 169 199 72 289 118 324 167 61 84 78 234 35 318 -20 40 -84
110 -100 109 -5 0 -91 -29 -190 -64z"/>
<path d="M2780 1258 c-14 -6 -97 -36 -185 -67 l-160 -57 -3 -48 c-3 -46 -2
-47 20 -41 92 28 127 55 120 90 -6 33 13 32 34 0 31 -47 11 -66 -163 -150
-159 -77 -203 -107 -229 -157 -18 -35 -18 -121 0 -156 14 -27 109 -122 122
-122 3 0 19 9 35 21 27 19 29 24 29 94 0 89 5 93 144 129 116 31 155 47 201
83 83 65 126 182 105 286 -12 61 -29 107 -39 106 -3 0 -17 -5 -31 -11z"/>
<path d="M2762 825 c-44 -31 -125 -62 -234 -89 l-88 -21 0 -52 c0 -29 3 -53 7
-53 14 0 104 64 118 83 20 29 30 14 15 -23 -13 -31 -47 -55 -274 -196 -70 -43
-142 -92 -160 -109 -29 -28 -30 -30 -10 -33 28 -4 150 43 354 138 209 97 271
136 305 193 30 52 43 134 26 165 -14 27 -17 26 -59 -3z"/>
<path d="M2630 484 c-36 -18 -95 -45 -133 -60 l-67 -27 5 -66 c17 -207 28
-298 36 -313 13 -23 56 -23 68 0 6 10 15 106 22 213 7 107 13 195 14 196 1 2
39 -11 86 -28 208 -77 265 -76 182 2 -38 35 -119 100 -138 111 -5 3 -39 -10
-75 -28z"/>
</g>
</svg>
